<?xml version="1.0" encoding="utf-8"?>
<!-- Generator: Adobe Illustrator 27.4.1, SVG Export Plug-In . SVG Version: 6.00 Build 0)  -->
<svg version="1.1" id="dice" xmlns="http://www.w3.org/2000/svg" xmlns:xlink="http://www.w3.org/1999/xlink" x="0px" y="0px"
	 viewBox="0 0 512 512" style="enable-background:new 0 0 512 512;" xml:space="preserve">
<style type="text/css">
	.st0{fill:#F1F5F4;}
	.st1{fill:#EB544C;}
</style>
<path class="st0" d="M512,64.6v382.8c0,35.7-29,64.6-64.6,64.6H64.6C29,512.1,0,483.1,0,447.5V64.7C0,29,29,0,64.6,0h382.7
	C483,0,512,29,512,64.6z"/>
<path class="st1" d="M170,115c0,30.3-24.7,55-55,55s-55-24.7-55-55s24.7-55,55-55S170,84.7,170,115z"/>
<path class="st1" d="M452,397c0,30.3-24.7,55-55,55s-55-24.7-55-55s24.7-55,55-55S452,366.7,452,397z"/>
<path class="st1" d="M452,115c0,30.3-24.7,55-55,55s-55-24.7-55-55s24.7-55,55-55S452,84.7,452,115z"/>
<path class="st1" d="M170,397c0,30.3-24.7,55-55,55s-55-24.7-55-55s24.7-55,55-55S170,366.7,170,397z"/>
</svg>
