<?xml version="1.0" encoding="utf-8"?>
<!-- Generator: Adobe Illustrator 27.4.1, SVG Export Plug-In . SVG Version: 6.00 Build 0)  -->
<svg version="1.1" id="Layer_1" xmlns="http://www.w3.org/2000/svg" xmlns:xlink="http://www.w3.org/1999/xlink" x="0px" y="0px"
	 viewBox="0 0 286.1 286.1" style="enable-background:new 0 0 286.1 286.1;" xml:space="preserve">
<style type="text/css">
	.st0{fill:#EB544C;}
</style>
<g>
	<path class="st0" d="M201.5,157.5l-52.2,51.6c-4.9,8-12.9,8-17.8,0l-52.2-51.6c-4.9-8-0.9-14.5,8.9-14.5h25.1l0-134c0-5,4-9,9-9
		h36.1c5,0,9,4.1,9,9l0,134h25.1C202.4,143,206.4,149.6,201.5,157.5z"/>
	<path class="st0" d="M143,286.1C70.8,286.1,12,227.3,12,155c0-45.7,25.8-90.3,65.8-113.7c6.3-3.7,14.3-1.6,18,4.7
		c3.7,6.3,1.6,14.3-4.7,18C59,82.7,38.2,118.5,38.2,155c0,57.8,47,104.8,104.8,104.8c57.8,0,104.8-47,104.8-104.8
		c0-42.8-31-75.7-57.5-90.9c-6.3-3.6-8.5-11.6-4.8-17.9c3.6-6.3,11.6-8.5,17.9-4.8C236,60,274.1,101,274.1,155
		C274.1,227.3,215.3,286.1,143,286.1z"/>
</g>
</svg>
