<?xml version="1.0" encoding="utf-8"?>
<!-- Generator: Adobe Illustrator 27.4.1, SVG Export Plug-In . SVG Version: 6.00 Build 0)  -->
<svg version="1.1" id="Layer_1" xmlns="http://www.w3.org/2000/svg" xmlns:xlink="http://www.w3.org/1999/xlink" x="0px" y="0px"
	 viewBox="0 0 286.1 286.1" style="enable-background:new 0 0 286.1 286.1;" xml:space="preserve">
<style type="text/css">
	.st0{fill:#DC3C33;}
</style>
<g>
	<path class="st0" d="M143,0C64,0,0,64,0,143c0,79,64,143,143,143c79,0,143-64,143-143C286,64,222,0,143,0z M143,259.2
		c-64.2,0-116.2-52-116.2-116.2S78.8,26.8,143,26.8c64.2,0,116.2,52,116.2,116.2S207.2,259.2,143,259.2z M196.8,125.1h-35.9V89.4
		c0-4.9-4-8.9-8.9-8.9h-17.9c-4.9,0-8.9,4-8.9,8.9v35.8H89.4c-5,0-9,4-9,8.9V152c0,4.9,4,8.9,9,8.9h35.7v35.7c0,4.9,4,8.9,8.9,8.9
		H152c4.9,0,8.9-4,8.9-8.9v-35.7h35.9c5,0,9-4,9-8.9v-17.9C205.8,129.2,201.8,125.1,196.8,125.1z"/>
</g>
</svg>
