<?xml version="1.0" encoding="utf-8"?>
<!-- Generator: Adobe Illustrator 27.4.1, SVG Export Plug-In . SVG Version: 6.00 Build 0)  -->
<svg version="1.1" id="Layer_1" xmlns="http://www.w3.org/2000/svg" xmlns:xlink="http://www.w3.org/1999/xlink" x="0px" y="0px"
	 viewBox="0 0 286.1 286.1" style="enable-background:new 0 0 286.1 286.1;" xml:space="preserve">
<style type="text/css">
	.st0{fill:#FCF9F9;}
</style>
<g>
	<path class="st0" d="M78.5,143.2H62.8v-0.1c0-43.6,34.8-80.3,79.2-80.1c21.6,0.1,41.5,8.8,55.7,23.1l25.8-24.9
		c-20.9-21-49.7-34-81.5-34c-63.6,0-115.2,52-115.3,116.1H10.9c-9.7,0-13.7,6.5-8.8,14.4l33.8,33.5c6.7,6.7,10.7,6.9,17.6,0
		l33.8-33.5C92.2,149.7,88.2,143.2,78.5,143.2z M284,129.2l-33.8-33.4c-6.9-6.9-11.2-6.5-17.6,0l-33.8,33.4
		c-4.9,7.9-0.9,14.4,8.8,14.4h15.6c-0.2,43.3-34.9,79.7-79.2,79.5c-21.6-0.1-41.5-8.8-55.7-23.1l-25.8,25c20.9,21,49.7,34,81.5,34
		c63.4,0,114.9-51.6,115.3-115.3h15.9C284.9,143.7,288.8,137.2,284,129.2z"/>
</g>
</svg>
