<?xml version="1.0" encoding="utf-8"?>
<!-- Generator: Adobe Illustrator 27.4.1, SVG Export Plug-In . SVG Version: 6.00 Build 0)  -->
<svg version="1.1" id="Calque_1" xmlns="http://www.w3.org/2000/svg" xmlns:xlink="http://www.w3.org/1999/xlink" x="0px" y="0px"
	 viewBox="0 0 104.1 32.3" style="enable-background:new 0 0 104.1 32.3;" xml:space="preserve">
<style type="text/css">
	.st0{fill:#DC3C33;}
	.st1{fill:#FCF9F9;stroke:#000000;stroke-width:0.25;stroke-miterlimit:10;}
</style>
<g>
	<g>
		<path class="st0" d="M2.2,17v5.1H0V8.9h3.6c0.8,0,1.5,0.1,2.1,0.3c0.6,0.2,1,0.4,1.4,0.8c0.4,0.3,0.6,0.7,0.8,1.2s0.3,1,0.3,1.5
			c0,0.4-0.1,0.9-0.2,1.3c-0.1,0.4-0.3,0.8-0.5,1.1c-0.2,0.3-0.5,0.6-0.8,0.8c-0.3,0.2-0.7,0.4-1.1,0.6c0.3,0.2,0.5,0.4,0.7,0.8
			l2.9,4.9h-2c-0.2,0-0.4,0-0.5-0.1c-0.1-0.1-0.2-0.2-0.3-0.4l-2.5-4.2c-0.1-0.2-0.2-0.3-0.3-0.3C3.5,17,3.3,17,3.1,17H2.2z
			 M2.2,15.2h1.4c0.4,0,0.8-0.1,1.1-0.2c0.3-0.1,0.6-0.3,0.8-0.5c0.2-0.2,0.3-0.4,0.4-0.7C5.9,13.5,6,13.2,6,12.9
			c0-0.7-0.2-1.2-0.6-1.5c-0.4-0.4-1-0.5-1.8-0.5H2.2V15.2z"/>
		<path class="st0" d="M20.9,22.1h-1.7c-0.2,0-0.3-0.1-0.5-0.2c-0.1-0.1-0.2-0.2-0.3-0.4l-0.9-2.7h-4.9l-0.9,2.7
			c0,0.1-0.1,0.3-0.3,0.4s-0.3,0.2-0.5,0.2H9.4l4.6-13.2h2.2L20.9,22.1z M13.3,17.1H17l-1.4-4.4c-0.1-0.2-0.1-0.4-0.2-0.7
			c-0.1-0.3-0.2-0.6-0.2-0.9c-0.1,0.3-0.2,0.6-0.2,0.9c-0.1,0.3-0.1,0.5-0.2,0.7L13.3,17.1z"/>
		<path class="st0" d="M23.5,8.9c0.1,0,0.1,0,0.2,0.1c0.1,0,0.1,0.1,0.2,0.1c0,0.1,0.1,0.1,0.2,0.2l6.2,8.8c0-0.2,0-0.4,0-0.6
			c0-0.2,0-0.4,0-0.6v-8H32v13.2h-1.1c-0.2,0-0.3,0-0.4-0.1c-0.1-0.1-0.2-0.2-0.3-0.3L24,12.9c0,0.2,0,0.4,0,0.6c0,0.2,0,0.4,0,0.5
			v8.1h-1.9V8.9h1.1C23.4,8.9,23.4,8.9,23.5,8.9z"/>
		<path class="st0" d="M44.9,15.5c0,1-0.1,1.9-0.4,2.7c-0.3,0.8-0.7,1.5-1.2,2.1c-0.5,0.6-1.1,1-1.9,1.4c-0.7,0.3-1.5,0.5-2.4,0.5
			h-4.5V8.9h4.5c0.9,0,1.7,0.2,2.4,0.5c0.7,0.3,1.4,0.8,1.9,1.4c0.5,0.6,0.9,1.3,1.2,2.1C44.7,13.7,44.9,14.5,44.9,15.5z M42.6,15.5
			c0-0.7-0.1-1.4-0.3-1.9c-0.2-0.6-0.4-1.1-0.7-1.5c-0.3-0.4-0.7-0.7-1.2-0.9c-0.5-0.2-1-0.3-1.5-0.3h-2.3v9.3h2.3
			c0.6,0,1.1-0.1,1.5-0.3c0.5-0.2,0.8-0.5,1.2-0.9c0.3-0.4,0.6-0.9,0.7-1.5C42.5,16.9,42.6,16.2,42.6,15.5z"/>
		<path class="st0" d="M57.8,15.5c0,1-0.1,1.9-0.4,2.7c-0.3,0.8-0.7,1.5-1.2,2.1c-0.5,0.6-1.1,1.1-1.9,1.4c-0.7,0.3-1.5,0.5-2.4,0.5
			c-0.9,0-1.7-0.2-2.4-0.5c-0.7-0.3-1.4-0.8-1.9-1.4c-0.5-0.6-0.9-1.3-1.2-2.1c-0.3-0.8-0.4-1.7-0.4-2.7c0-1,0.1-1.9,0.4-2.7
			c0.3-0.8,0.7-1.5,1.2-2.1c0.5-0.6,1.2-1.1,1.9-1.4C50.2,9,51,8.8,51.9,8.8c0.9,0,1.7,0.2,2.4,0.5c0.7,0.3,1.4,0.8,1.9,1.4
			c0.5,0.6,0.9,1.3,1.2,2.1C57.7,13.7,57.8,14.5,57.8,15.5z M55.6,15.5c0-0.7-0.1-1.4-0.3-1.9c-0.2-0.6-0.4-1.1-0.7-1.5
			c-0.3-0.4-0.7-0.7-1.2-0.9c-0.5-0.2-1-0.3-1.5-0.3c-0.6,0-1.1,0.1-1.6,0.3s-0.9,0.5-1.2,0.9c-0.3,0.4-0.6,0.9-0.7,1.5
			c-0.2,0.6-0.3,1.2-0.3,1.9c0,0.7,0.1,1.4,0.3,1.9c0.2,0.6,0.4,1.1,0.7,1.5c0.3,0.4,0.7,0.7,1.2,0.9c0.5,0.2,1,0.3,1.6,0.3
			c0.6,0,1.1-0.1,1.5-0.3c0.5-0.2,0.8-0.5,1.2-0.9c0.3-0.4,0.6-0.9,0.7-1.5C55.5,16.9,55.6,16.2,55.6,15.5z"/>
		<path class="st0" d="M65.7,17.2c0.1,0.2,0.2,0.4,0.2,0.6c0.1-0.2,0.2-0.4,0.2-0.6c0.1-0.2,0.2-0.4,0.3-0.6l3.5-7.3
			c0-0.1,0.1-0.2,0.1-0.2c0-0.1,0.1-0.1,0.2-0.1c0.1,0,0.1,0,0.2,0c0.1,0,0.2,0,0.3,0h1.7v13.2h-1.9v-8.5c0-0.2,0-0.3,0-0.5
			c0-0.2,0-0.4,0-0.6L66.9,20c-0.1,0.2-0.2,0.3-0.3,0.4c-0.1,0.1-0.3,0.1-0.5,0.1h-0.3c-0.2,0-0.3,0-0.5-0.1
			c-0.1-0.1-0.2-0.2-0.3-0.4l-3.6-7.5c0,0.2,0,0.4,0,0.6s0,0.4,0,0.5v8.5h-1.9V8.9h1.7c0.1,0,0.2,0,0.3,0c0.1,0,0.1,0,0.2,0
			c0.1,0,0.1,0.1,0.2,0.1c0,0.1,0.1,0.1,0.1,0.2l3.5,7.3C65.6,16.8,65.6,17,65.7,17.2z"/>
	</g>
	<g>
		<path class="st1" d="M77,14L87.5,3.6c1-1,2.6-1,3.5,0L101.5,14c1,1,1,2.6,0,3.5L91,28c-1,1-2.6,1-3.5,0L77,17.6
			C76,16.6,76,15,77,14z"/>
		<path class="st0" d="M87.7,22c0.8-0.8,2.2-0.8,3,0c0.8,0.8,0.8,2.2,0,3c-0.8,0.8-2.2,0.8-3,0C86.9,24.2,86.9,22.8,87.7,22z"/>
		<path class="st0" d="M87.7,6.6c0.8-0.8,2.2-0.8,3,0s0.8,2.2,0,3s-2.2,0.8-3,0S86.9,7.4,87.7,6.6z"/>
		<path class="st0" d="M80,14.3c0.8-0.8,2.2-0.8,3,0c0.8,0.8,0.8,2.2,0,3c-0.8,0.8-2.2,0.8-3,0C79.2,16.5,79.2,15.1,80,14.3z"/>
		<path class="st0" d="M95.5,14.3c0.8-0.8,2.2-0.8,3,0c0.8,0.8,0.8,2.2,0,3c-0.8,0.8-2.2,0.8-3,0S94.6,15.1,95.5,14.3z"/>
		<path class="st0" d="M83.9,10.4c0.8-0.8,2.2-0.8,3,0c0.8,0.8,0.8,2.2,0,3c-0.8,0.8-2.2,0.8-3,0C83.1,12.6,83.1,11.3,83.9,10.4z"/>
		<path class="st0" d="M91.6,18.1c0.8-0.8,2.2-0.8,3,0c0.8,0.8,0.8,2.2,0,3s-2.2,0.8-3,0S90.8,19,91.6,18.1z"/>
		<g>
			<path class="st0" d="M96.4,5.7C96.2,5.9,96,6,95.8,6.1s-0.4,0.1-0.7,0.1c-0.2,0-0.4,0-0.7-0.1C94.2,6,94,5.9,93.8,5.7l-1-1
				l2.5-2.5l1,1c0.2,0.2,0.3,0.4,0.4,0.6c0.1,0.2,0.1,0.4,0.1,0.7c0,0.2,0,0.4-0.1,0.7C96.7,5.3,96.6,5.5,96.4,5.7z M95.9,5.2
				C96,5.1,96.1,5,96.2,4.8c0.1-0.1,0.1-0.3,0.1-0.4c0-0.1,0-0.3-0.1-0.4c-0.1-0.1-0.1-0.3-0.3-0.4l-0.5-0.5l-1.8,1.8l0.5,0.5
				c0.1,0.1,0.3,0.2,0.4,0.3c0.1,0.1,0.3,0.1,0.4,0.1c0.1,0,0.3,0,0.4-0.1C95.6,5.5,95.8,5.4,95.9,5.2z"/>
			<path class="st0" d="M96,7.9l-0.5-0.5l2.5-2.5l0.5,0.5L96,7.9z"/>
			<path class="st0" d="M98.9,9.6C98.9,9.6,98.9,9.6,98.9,9.6l0,0.5c-0.2,0-0.5,0-0.7-0.1c-0.2-0.1-0.4-0.2-0.6-0.4
				c-0.2-0.2-0.3-0.4-0.4-0.6c-0.1-0.2-0.1-0.4-0.1-0.6c0-0.2,0.1-0.4,0.2-0.6c0.1-0.2,0.2-0.4,0.4-0.6c0.2-0.2,0.4-0.3,0.6-0.4
				c0.2-0.1,0.4-0.1,0.7-0.1c0.2,0,0.5,0,0.7,0.1c0.2,0.1,0.4,0.2,0.6,0.4c0.2,0.2,0.3,0.4,0.4,0.6c0.1,0.2,0.1,0.4,0.1,0.6
				l-0.4,0.1c0,0,0,0-0.1,0c0,0,0,0-0.1,0c0,0,0-0.1-0.1-0.1c0,0,0-0.1,0-0.2c0-0.1,0-0.1-0.1-0.2c0-0.1-0.1-0.2-0.2-0.3
				c-0.1-0.1-0.2-0.2-0.4-0.3c-0.1-0.1-0.3-0.1-0.4-0.1c-0.1,0-0.3,0-0.4,0.1c-0.2,0.1-0.3,0.2-0.4,0.3c-0.1,0.1-0.2,0.3-0.3,0.4
				c-0.1,0.2-0.1,0.3-0.1,0.4c0,0.1,0,0.3,0.1,0.4c0.1,0.1,0.1,0.3,0.2,0.4c0.1,0.1,0.1,0.1,0.2,0.2c0.1,0,0.1,0.1,0.2,0.1
				c0.1,0,0.1,0.1,0.2,0.1c0.1,0,0.1,0,0.2,0C98.8,9.5,98.8,9.5,98.9,9.6C98.9,9.5,98.9,9.6,98.9,9.6z"/>
			<path class="st0" d="M103,9.8l-0.4,0.4l-1.1-1.1l-0.7,0.7l0.9,0.9l-0.4,0.4l-0.9-0.9l-0.7,0.7l1.1,1.1l-0.4,0.4l-1.6-1.6l2.5-2.5
				L103,9.8z"/>
		</g>
		<g>
			<path class="st0" d="M96.1,26.3c0.2,0.2,0.3,0.4,0.4,0.6s0.1,0.4,0.1,0.7c0,0.2,0,0.4-0.1,0.7s-0.2,0.4-0.4,0.6l-1,1l-2.5-2.5
				l1-1c0.2-0.2,0.4-0.3,0.6-0.4s0.4-0.1,0.7-0.1c0.2,0,0.4,0,0.7,0.1S95.9,26.2,96.1,26.3z M95.6,26.8c-0.1-0.1-0.3-0.2-0.4-0.3
				s-0.3-0.1-0.4-0.1c-0.1,0-0.3,0-0.4,0.1c-0.1,0.1-0.3,0.1-0.4,0.3l-0.5,0.5l1.8,1.8l0.5-0.5c0.1-0.1,0.2-0.3,0.3-0.4
				c0.1-0.1,0.1-0.3,0.1-0.4c0-0.1,0-0.3-0.1-0.4C95.9,27.1,95.8,27,95.6,26.8z"/>
			<path class="st0" d="M99.9,25.1l-0.4,0.4c0,0-0.1,0.1-0.1,0.1c0,0-0.1,0-0.1,0l-0.7-0.3l-1,1l0.3,0.7c0,0,0,0.1,0,0.1
				c0,0,0,0.1-0.1,0.1l-0.4,0.4l-1.5-3.5l0.5-0.5L99.9,25.1z M97.3,25.8l0.8-0.8l-1.1-0.5c-0.1,0-0.1-0.1-0.2-0.1s-0.1-0.1-0.2-0.1
				c0,0.1,0.1,0.1,0.1,0.2s0.1,0.1,0.1,0.2L97.3,25.8z"/>
			<path class="st0" d="M99.4,21.4C99.4,21.5,99.4,21.5,99.4,21.4c0,0.1,0,0.2,0,0.2s-0.1,0-0.1,0.1s-0.1,0-0.2,0
				c-0.1,0-0.1,0-0.2,0.1s-0.1,0.1-0.2,0.2c-0.1,0.1-0.1,0.1-0.1,0.2c0,0.1-0.1,0.1-0.1,0.2c0,0.1,0,0.1,0,0.2
				c0,0.1,0.1,0.1,0.1,0.2c0.1,0.1,0.1,0.1,0.2,0.1c0.1,0,0.2,0,0.2,0c0.1,0,0.2-0.1,0.3-0.1c0.1,0,0.2-0.1,0.3-0.1
				c0.1,0,0.2-0.1,0.3-0.1s0.2-0.1,0.3-0.1c0.1,0,0.2,0,0.3,0.1s0.2,0.1,0.3,0.2c0.1,0.1,0.2,0.2,0.3,0.4s0.1,0.3,0.1,0.4
				c0,0.1,0,0.3-0.1,0.4c-0.1,0.2-0.2,0.3-0.3,0.4c-0.1,0.1-0.2,0.2-0.3,0.2c-0.1,0.1-0.2,0.1-0.3,0.2s-0.2,0.1-0.3,0.1
				c-0.1,0-0.2,0-0.3,0l-0.1-0.4c0,0,0-0.1,0-0.1c0,0,0-0.1,0-0.1c0,0,0.1,0,0.1-0.1c0.1,0,0.1,0,0.2,0c0.1,0,0.2,0,0.2-0.1
				c0.1,0,0.2-0.1,0.3-0.2c0.1-0.1,0.2-0.3,0.2-0.4c0-0.1,0-0.3-0.2-0.4c-0.1-0.1-0.1-0.1-0.2-0.1s-0.2,0-0.2,0
				c-0.1,0-0.2,0.1-0.3,0.1s-0.2,0.1-0.3,0.1c-0.1,0-0.2,0.1-0.3,0.1c-0.1,0-0.2,0.1-0.3,0.1c-0.1,0-0.2,0-0.3-0.1
				c-0.1,0-0.2-0.1-0.3-0.2C98.1,23,98,22.9,98,22.8s-0.1-0.3-0.1-0.4s0-0.3,0.1-0.4c0.1-0.1,0.2-0.3,0.3-0.4
				c0.1-0.1,0.3-0.3,0.5-0.3c0.2-0.1,0.3-0.1,0.5-0.1L99.4,21.4z"/>
			<path class="st0" d="M104.1,20.9l-0.5,0.5l-1.1-1.1l-1.2,1.2l1.1,1.1L102,23l-2.5-2.5l0.5-0.5l1.1,1.1l1.2-1.2l-1.1-1.1l0.5-0.5
				L104.1,20.9z"/>
		</g>
	</g>
</g>
</svg>
